<?xml version="1.0" standalone="no"?>
<!DOCTYPE svg PUBLIC "-//W3C//DTD SVG 20010904//EN"
 "http://www.w3.org/TR/2001/REC-SVG-20010904/DTD/svg10.dtd">
<svg version="1.0" xmlns="http://www.w3.org/2000/svg"
 width="460.000000pt" height="460.000000pt" viewBox="0 0 460.000000 460.000000"
 preserveAspectRatio="xMidYMid meet">
<metadata>
Created by potrace 1.14, written by Peter Selinger 2001-2017
</metadata>
<g transform="translate(0.000000,460.000000) scale(0.100000,-0.100000)"
fill="#000000" stroke="none">
<path d="M690 2985 l0 -1025 945 0 945 0 0 1025 0 1025 -945 0 -945 0 0 -1025z"/>
<path d="M2770 3240 l0 -770 355 0 c394 0 458 7 572 61 165 78 250 254 214
441 -31 155 -133 257 -295 293 -35 7 -27 16 36 39 159 58 239 227 194 406 -39
156 -166 258 -358 290 -35 5 -210 10 -390 10 l-328 0 0 -770z m699 510 c24
-14 58 -42 75 -63 28 -36 31 -45 31 -112 0 -65 -3 -78 -30 -116 -20 -29 -50
-54 -88 -73 -55 -28 -63 -29 -232 -34 l-175 -5 0 218 0 217 188 -4 c178 -3
189 -4 231 -28z m-3 -615 c103 -30 167 -117 166 -226 0 -62 -16 -101 -59 -141
-54 -52 -99 -61 -320 -66 l-203 -4 0 226 0 226 183 0 c133 0 197 -4 233 -15z"/>
<path d="M2770 1379 l0 -770 388 3 387 3 78 28 c91 32 141 62 192 114 113 116
137 313 57 469 -42 83 -133 148 -252 181 -30 9 -32 11 -15 18 115 43 184 100
224 185 35 74 36 206 2 292 -28 73 -99 147 -177 186 -108 54 -175 62 -549 62
l-335 0 0 -771z m670 524 c103 -33 159 -136 131 -242 -16 -60 -44 -96 -99
-128 -46 -27 -51 -28 -234 -31 l-188 -4 0 211 0 211 169 0 c130 0 180 -4 221
-17z m71 -645 c61 -36 95 -78 113 -139 36 -119 -22 -222 -143 -260 -20 -6
-125 -14 -233 -16 l-198 -5 0 227 0 226 208 -3 c205 -3 207 -3 253 -30z"/>
<path d="M690 1210 l0 -620 945 0 945 0 0 620 0 620 -945 0 -945 0 0 -620z"/>
</g>
</svg>
